G04 #@! TF.GenerationSoftware,KiCad,Pcbnew,(5.0.1)-rc2*
G04 #@! TF.CreationDate,2018-10-28T19:10:13+01:00*
G04 #@! TF.ProjectId,2D_xmas_tree01,32445F786D61735F7472656530312E6B,rev?*
G04 #@! TF.SameCoordinates,Original*
G04 #@! TF.FileFunction,Profile,NP*
%FSLAX46Y46*%
G04 Gerber Fmt 4.6, Leading zero omitted, Abs format (unit mm)*
G04 Created by KiCad (PCBNEW (5.0.1)-rc2) date 28.10.2018 19:10:13*
%MOMM*%
%LPD*%
G01*
G04 APERTURE LIST*
%ADD10C,0.150000*%
G04 #@! TA.AperFunction,NonConductor*
%ADD11C,0.150000*%
G04 #@! TD*
G04 APERTURE END LIST*
D10*
X118745000Y-76200000D02*
X99695000Y-97790000D01*
X194945000Y-107315000D02*
X184785000Y-89535000D01*
X187960000Y-104775000D02*
X194945000Y-107315000D01*
X194945000Y-119380000D02*
X187960000Y-104775000D01*
X111125000Y-93980000D02*
X97790000Y-112395000D01*
X193675000Y-93345000D02*
X184785000Y-89535000D01*
X193675000Y-93345000D02*
X178435000Y-72390000D01*
X99695000Y-97790000D02*
X111125000Y-93980000D01*
X158193288Y-49321233D02*
X148590000Y-45720000D01*
X139774763Y-49090532D02*
X123825000Y-56515000D01*
X163830000Y-55245000D02*
X171450000Y-56515000D01*
X131445000Y-55880000D02*
X107950000Y-80010000D01*
X118745000Y-76200000D02*
X107950000Y-80010000D01*
X187960000Y-76200000D02*
X163830000Y-55245000D01*
X97790000Y-112395000D02*
X104140000Y-111125000D01*
X104140000Y-111125000D02*
X99060000Y-124460000D01*
X186690000Y-114935000D02*
X194945000Y-119380000D01*
X182245000Y-142240000D02*
X183515000Y-134620000D01*
X111760000Y-145415000D02*
X186690000Y-145415000D01*
X115570000Y-140970000D02*
X111760000Y-145415000D01*
X110490000Y-119380000D02*
X115570000Y-140970000D01*
X99060000Y-124460000D02*
X110490000Y-119380000D01*
X123825000Y-56515000D02*
X131445000Y-55880000D01*
X148590000Y-45720000D02*
X139774763Y-49090532D01*
X171450000Y-56515000D02*
X158193288Y-49321233D01*
X187960000Y-76200000D02*
X178435000Y-72390000D01*
X183515000Y-134620000D02*
X186690000Y-114935000D01*
X186690000Y-145415000D02*
X182245000Y-142240000D01*
D11*
G04 #@! TO.C,D11*
X157009521Y-77979495D02*
X151948851Y-78422247D01*
X151727476Y-75891912D02*
X151948851Y-78422247D01*
X156788145Y-75449161D02*
X151727476Y-75891912D01*
X157009521Y-77979495D02*
X156788145Y-75449161D01*
G04 #@! TO.C,D8*
X172293588Y-91881066D02*
X177296412Y-90998934D01*
X177737478Y-93500345D02*
X177296412Y-90998934D01*
X172734655Y-94382478D02*
X177737478Y-93500345D01*
X172293588Y-91881066D02*
X172734655Y-94382478D01*
G04 #@! TO.C,D12*
X142750295Y-83820000D02*
X147149705Y-86360000D01*
X145879705Y-88559705D02*
X147149705Y-86360000D01*
X141480295Y-86019705D02*
X145879705Y-88559705D01*
X142750295Y-83820000D02*
X141480295Y-86019705D01*
G04 #@! TO.C,D18*
X138118181Y-100096269D02*
X142891819Y-101833731D01*
X142023088Y-104220550D02*
X142891819Y-101833731D01*
X137249450Y-102483088D02*
X142023088Y-104220550D01*
X138118181Y-100096269D02*
X137249450Y-102483088D01*
G04 #@! TO.C,D17*
X137291412Y-91633934D02*
X132288588Y-92516066D01*
X131847522Y-90014655D02*
X132288588Y-92516066D01*
X136850345Y-89132522D02*
X131847522Y-90014655D01*
X137291412Y-91633934D02*
X136850345Y-89132522D01*
G04 #@! TO.C,D13*
X160616412Y-93151066D02*
X155613588Y-92268934D01*
X156054655Y-89767522D02*
X155613588Y-92268934D01*
X161057478Y-90649655D02*
X156054655Y-89767522D01*
X160616412Y-93151066D02*
X161057478Y-90649655D01*
G04 #@! TO.C,D14*
X161963588Y-103311066D02*
X166966412Y-102428934D01*
X167407478Y-104930345D02*
X166966412Y-102428934D01*
X162404655Y-105812478D02*
X167407478Y-104930345D01*
X161963588Y-103311066D02*
X162404655Y-105812478D01*
G04 #@! TO.C,D15*
X177398731Y-99383181D02*
X175661269Y-104156819D01*
X173274450Y-103288088D02*
X175661269Y-104156819D01*
X175011912Y-98514450D02*
X173274450Y-103288088D01*
X177398731Y-99383181D02*
X175011912Y-98514450D01*
G04 #@! TO.C,D7*
X175435646Y-82101884D02*
X171274354Y-79188116D01*
X172731238Y-77107470D02*
X171274354Y-79188116D01*
X176892530Y-80021238D02*
X172731238Y-77107470D01*
X175435646Y-82101884D02*
X176892530Y-80021238D01*
G04 #@! TO.C,D16*
X183321066Y-112526412D02*
X182438934Y-107523588D01*
X184940345Y-107082522D02*
X182438934Y-107523588D01*
X185822478Y-112085345D02*
X184940345Y-107082522D01*
X183321066Y-112526412D02*
X185822478Y-112085345D01*
G04 #@! TO.C,D10*
X118551066Y-91401412D02*
X117668934Y-86398588D01*
X120170345Y-85957522D02*
X117668934Y-86398588D01*
X121052478Y-90960345D02*
X120170345Y-85957522D01*
X118551066Y-91401412D02*
X121052478Y-90960345D01*
G04 #@! TO.C,D20*
X124653934Y-106811412D02*
X125536066Y-101808588D01*
X128037478Y-102249655D02*
X125536066Y-101808588D01*
X127155345Y-107252478D02*
X128037478Y-102249655D01*
X124653934Y-106811412D02*
X127155345Y-107252478D01*
G04 #@! TO.C,D19*
X113052400Y-106936548D02*
X111737600Y-111843452D01*
X109284148Y-111186051D02*
X111737600Y-111843452D01*
X110598949Y-106279148D02*
X109284148Y-111186051D01*
X113052400Y-106936548D02*
X110598949Y-106279148D01*
G04 #@! TO.C,R3*
X151130000Y-107315000D02*
X146050000Y-107315000D01*
X146050000Y-104775000D02*
X146050000Y-107315000D01*
X151130000Y-104775000D02*
X146050000Y-104775000D01*
X151130000Y-107315000D02*
X151130000Y-104775000D01*
G04 #@! TO.C,R6*
X145415000Y-113665000D02*
X150495000Y-113665000D01*
X150495000Y-116205000D02*
X150495000Y-113665000D01*
X145415000Y-116205000D02*
X150495000Y-116205000D01*
X145415000Y-113665000D02*
X145415000Y-116205000D01*
G04 #@! TO.C,D1*
X141215481Y-57810047D02*
X136441843Y-59547509D01*
X135573112Y-57160690D02*
X136441843Y-59547509D01*
X140346750Y-55423228D02*
X135573112Y-57160690D01*
X141215481Y-57810047D02*
X140346750Y-55423228D01*
G04 #@! TO.C,D2*
X159468157Y-57383731D02*
X154694519Y-55646269D01*
X155563250Y-53259450D02*
X154694519Y-55646269D01*
X160336888Y-54996912D02*
X155563250Y-53259450D01*
X159468157Y-57383731D02*
X160336888Y-54996912D01*
G04 #@! TO.C,D3*
X133093452Y-68557600D02*
X128186548Y-69872400D01*
X127529148Y-67418949D02*
X128186548Y-69872400D01*
X132436051Y-66104148D02*
X127529148Y-67418949D01*
X133093452Y-68557600D02*
X132436051Y-66104148D01*
G04 #@! TO.C,D4*
X141163934Y-74086412D02*
X142046066Y-69083588D01*
X144547478Y-69524655D02*
X142046066Y-69083588D01*
X143665345Y-74527478D02*
X144547478Y-69524655D01*
X141163934Y-74086412D02*
X143665345Y-74527478D01*
G04 #@! TO.C,D5*
X157393452Y-67967400D02*
X152486548Y-66652600D01*
X153143949Y-64199148D02*
X152486548Y-66652600D01*
X158050852Y-65513949D02*
X153143949Y-64199148D01*
X157393452Y-67967400D02*
X158050852Y-65513949D01*
G04 #@! TO.C,D6*
X170474705Y-70485000D02*
X166075295Y-67945000D01*
X167345295Y-65745295D02*
X166075295Y-67945000D01*
X171744705Y-68285295D02*
X167345295Y-65745295D01*
X170474705Y-70485000D02*
X171744705Y-68285295D01*
G04 #@! TO.C,D9*
X132477022Y-79571550D02*
X127872978Y-81718450D01*
X126799528Y-79416429D02*
X127872978Y-81718450D01*
X131403571Y-77269528D02*
X126799528Y-79416429D01*
X132477022Y-79571550D02*
X131403571Y-77269528D01*
G04 #@! TO.C,R1*
X164635000Y-114300000D02*
X169715000Y-114300000D01*
X169715000Y-116840000D02*
X169715000Y-114300000D01*
X164635000Y-116840000D02*
X169715000Y-116840000D01*
X164635000Y-114300000D02*
X164635000Y-116840000D01*
G04 #@! TO.C,R2*
X157480000Y-113665000D02*
X157480000Y-108585000D01*
X160020000Y-108585000D02*
X157480000Y-108585000D01*
X160020000Y-113665000D02*
X160020000Y-108585000D01*
X157480000Y-113665000D02*
X160020000Y-113665000D01*
G04 #@! TO.C,R4*
X136525000Y-113835000D02*
X136525000Y-108755000D01*
X139065000Y-108755000D02*
X136525000Y-108755000D01*
X139065000Y-113835000D02*
X139065000Y-108755000D01*
X136525000Y-113835000D02*
X139065000Y-113835000D01*
G04 #@! TO.C,R5*
X130175000Y-114300000D02*
X125095000Y-114300000D01*
X125095000Y-111760000D02*
X125095000Y-114300000D01*
X130175000Y-111760000D02*
X125095000Y-111760000D01*
X130175000Y-114300000D02*
X130175000Y-111760000D01*
G04 #@! TO.C,SW1*
X151955000Y-145415000D02*
X143955000Y-145415000D01*
X151955000Y-140475000D02*
X151955000Y-145415000D01*
X143955000Y-140475000D02*
X151955000Y-140475000D01*
X143955000Y-145415000D02*
X143955000Y-140475000D01*
G04 #@! TO.C,U1*
X151130000Y-123825000D02*
X145130000Y-123825000D01*
X151130000Y-116205000D02*
X151130000Y-123825000D01*
X145130000Y-116205000D02*
X151130000Y-116205000D01*
X145130000Y-123825000D02*
X145130000Y-116205000D01*
G04 #@! TO.C,BT1*
X138749673Y-130589672D02*
G75*
G03X138749673Y-130589672I-10700001J0D01*
G01*
G04 #@! TO.C,BT2*
X179830329Y-130589672D02*
G75*
G03X179830329Y-130589672I-10700001J0D01*
G01*
G04 #@! TO.C,C1*
X144145000Y-133180000D02*
X141605000Y-133180000D01*
X141605000Y-133180000D02*
X141605000Y-138260000D01*
X141605000Y-138260000D02*
X144145000Y-138260000D01*
X144145000Y-133180000D02*
X144145000Y-138260000D01*
G04 #@! TD*
M02*
