M48
;DRILL file {KiCad (5.0.1)-rc2} date 28.10.2018 19:10:16
;FORMAT={-:-/ absolute / metric / decimal}
FMAT,2
METRIC,TZ
T1C0.400
T2C0.500
T3C0.600
T4C0.700
T5C0.800
T6C1.000
T7C2.200
T8C4.000
%
G90
G05
M71
T1
X147.955Y-125.005
X147.955Y-127.
X156.845Y-125.73
X156.935Y-119.38
T2
X154.94Y-121.92
X116.375Y-126.1
X123.56Y-118.915
X132.54Y-142.264
X139.724Y-135.08
X145.13Y-118.11
X145.13Y-119.38
X145.13Y-120.65
X145.13Y-121.92
X151.13Y-118.11
X151.13Y-119.38
X151.13Y-120.65
X151.13Y-121.92
X157.456Y-135.08
X164.64Y-142.264
X173.62Y-118.915
X180.805Y-126.1
T3
X145.59Y-51.435
X146.469Y-49.314
X146.469Y-53.556
X148.59Y-48.435
X148.59Y-54.435
X150.711Y-49.314
X150.711Y-53.556
X151.59Y-51.435
T4
X145.705Y-140.475
X148.705Y-140.475
X150.205Y-140.475
T5
X117.669Y-120.209
X138.43Y-140.97
X143.955Y-141.775
X143.955Y-143.975
X151.955Y-141.775
X151.955Y-143.975
X158.75Y-140.97
X179.511Y-120.209
T6
X172.454Y-80.014
X174.256Y-81.276
X157.032Y-92.519
X159.198Y-92.901
X129.178Y-81.11
X131.172Y-80.18
X146.855Y-113.665
X149.055Y-113.665
X117.919Y-87.817
X118.301Y-89.983
X139.471Y-100.589
X141.539Y-101.341
X143.997Y-84.54
X145.903Y-85.64
X112.11Y-110.453
X112.68Y-108.327
X133.707Y-92.266
X135.873Y-91.884
X153.383Y-78.297
X155.575Y-78.105
X176.154Y-102.804
X176.906Y-100.736
X147.49Y-107.315
X149.69Y-107.315
X166.075Y-114.3
X168.275Y-114.3
X182.689Y-108.942
X183.071Y-111.108
X126.535Y-114.3
X128.735Y-114.3
X157.48Y-110.025
X157.48Y-112.225
X124.904Y-105.393
X125.286Y-103.227
X163.382Y-103.061
X165.548Y-102.679
X173.712Y-91.631
X175.878Y-91.249
X137.795Y-59.055
X139.862Y-58.303
X144.145Y-134.62
X144.145Y-136.82
X167.322Y-68.665
X169.228Y-69.765
X156.048Y-56.139
X158.115Y-56.891
X141.414Y-72.668
X141.796Y-70.502
X129.577Y-69.5
X131.703Y-68.93
X146.05Y-129.54
X146.05Y-132.08
X148.59Y-129.54
X148.59Y-132.08
X151.13Y-129.54
X151.13Y-132.08
X136.525Y-110.195
X136.525Y-112.395
X153.877Y-67.025
X156.003Y-67.595
T7
X176.53Y-145.415
X118.745Y-145.415
T8
X148.59Y-51.435
T0
M30
